<mxfile host="65bd71144e">
    <diagram id="_2MhS2x0Oyv85ThhjLEa" name="Page 2">
        <mxGraphModel dx="879" dy="636" grid="1" gridSize="10" guides="1" tooltips="1" connect="1" arrows="1" fold="1" page="1" pageScale="1" pageWidth="850" pageHeight="1100" math="0" shadow="0">
            <root>
                <mxCell id="0"/>
                <mxCell id="1" parent="0"/>
                <mxCell id="3" style="graphMlID=entity0;gradientDirection=east;shape=swimlane;startSize=30;rounded=1;arcSize=5;collapsible=0;fillColor=#1ba1e2;strokeColor=#006EAF;strokeWidth=1.0;swimlaneFillColor=#202020;fontColor=#ffffff;movable=1;resizable=1;rotatable=1;deletable=1;editable=1;locked=0;connectable=1;" vertex="1" parent="1">
                    <mxGeometry x="33.08" y="20" width="190.36" height="94" as="geometry"/>
                </mxCell>
                <mxCell id="4" value="county_fips&lt;br/&gt;year&lt;br/&gt;event_count&amp;#x9;&amp;#x9;&amp;#x9;&amp;#x9;&amp;#x9;&amp;#x9;" style="text;html=1;spacing=0;align=left;fontFamily=courier;fontSize=12;fontStyle=0;=center;fontColor=#c4c4c4;movable=1;resizable=1;rotatable=1;deletable=1;editable=1;locked=0;connectable=1;" vertex="1" parent="3">
                    <mxGeometry x="2" y="31.66796875" width="159" height="64" as="geometry"/>
                </mxCell>
                <mxCell id="5" value="NOAA_STORM_EPISODES" style="text;html=1;spacing=0;align=center;fontFamily=courier;fontSize=12;fontStyle=0;=center;fontColor=#ffffff;movable=1;resizable=1;rotatable=1;deletable=1;editable=1;locked=0;connectable=1;" vertex="1" parent="3">
                    <mxGeometry y="4" width="159" height="22" as="geometry"/>
                </mxCell>
                <mxCell id="6" style="graphMlID=entity1;gradientDirection=east;shape=swimlane;startSize=30;rounded=1;arcSize=5;collapsible=0;fillColor=#1ba1e2;strokeColor=#006EAF;strokeWidth=1.0;swimlaneFillColor=#202020;fontColor=#ffffff;movable=1;resizable=1;rotatable=1;deletable=1;editable=1;locked=0;connectable=1;" vertex="1" parent="1">
                    <mxGeometry x="270" y="20" width="155" height="294" as="geometry"/>
                </mxCell>
                <mxCell id="7" value="EPISODE_ID&lt;br/&gt;EVENT_ID&lt;br/&gt;EVENT_TYPE&lt;br/&gt;CZ_FIPS&lt;br/&gt;STATE_FIPS&lt;br/&gt;INJURIES_DIRECT&lt;br/&gt;INJURIES_INDIRECT&lt;br/&gt;DEATHS_DIRECT&lt;br/&gt;DEATHS_INDIRECT&lt;br/&gt;DAMAGE_PROPERTY&lt;br/&gt;DATE&lt;br/&gt;YEAR&lt;br/&gt;CO_FIPS&amp;#x9;&amp;#x9;&amp;#x9;&amp;#x9;&amp;#x9;&amp;#x9;" style="text;html=1;spacing=0;align=left;fontFamily=courier;fontSize=12;fontStyle=0;=center;fontColor=#c4c4c4;movable=1;resizable=1;rotatable=1;deletable=1;editable=1;locked=0;connectable=1;" vertex="1" parent="6">
                    <mxGeometry x="2" y="31.66796875" width="151" height="264" as="geometry"/>
                </mxCell>
                <mxCell id="8" value="NOAA_STORM_EVENTS" style="text;html=1;spacing=0;align=center;fontFamily=courier;fontSize=12;fontStyle=0;=center;fontColor=#ffffff;movable=1;resizable=1;rotatable=1;deletable=1;editable=1;locked=0;connectable=1;" vertex="1" parent="6">
                    <mxGeometry y="4" width="151" height="22" as="geometry"/>
                </mxCell>
                <mxCell id="9" style="graphMlID=entity2;gradientDirection=east;shape=swimlane;startSize=30;rounded=1;arcSize=5;collapsible=0;fillColor=#1ba1e2;strokeColor=#006EAF;strokeWidth=1.0;swimlaneFillColor=#202020;fontColor=#ffffff;movable=1;resizable=1;rotatable=1;deletable=1;editable=1;locked=0;connectable=1;" vertex="1" parent="1">
                    <mxGeometry x="440" y="20" width="234.56" height="160" as="geometry"/>
                </mxCell>
                <mxCell id="10" value="county_fips&lt;br/&gt;lambda_hat&lt;br/&gt;years_observed&lt;br/&gt;total_events&lt;br/&gt;lambda_se&lt;br/&gt;lambda_ci_lower&lt;br/&gt;lambda_ci_upper&lt;br/&gt;risk_category&amp;#x9;&amp;#x9;&amp;#x9;&amp;#x9;&amp;#x9;&amp;#x9;" style="text;html=1;spacing=0;align=left;fontFamily=courier;fontSize=12;fontStyle=0;=center;fontColor=#c4c4c4;movable=1;resizable=1;rotatable=1;deletable=1;editable=1;locked=0;connectable=1;" vertex="1" parent="9">
                    <mxGeometry x="2" y="31.67" width="196" height="128.33" as="geometry"/>
                </mxCell>
                <mxCell id="11" value="POISSON_FREQUENCY_PARAMS" style="text;html=1;spacing=0;align=center;fontFamily=courier;fontSize=12;fontStyle=0;=center;fontColor=#ffffff;movable=1;resizable=1;rotatable=1;deletable=1;editable=1;locked=0;connectable=1;" vertex="1" parent="9">
                    <mxGeometry y="4" width="196" height="22" as="geometry"/>
                </mxCell>
                <mxCell id="12" style="graphMlID=entity3;gradientDirection=east;shape=swimlane;startSize=30;rounded=1;arcSize=5;collapsible=0;fillColor=#008a00;strokeColor=#005700;strokeWidth=1.0;swimlaneFillColor=#202020;fontColor=#ffffff;" vertex="1" parent="1">
                    <mxGeometry x="750" y="20" width="197.36" height="414" as="geometry"/>
                </mxCell>
                <mxCell id="13" value="POPUNI&lt;br/&gt;PRED0_E&lt;br/&gt;PRED0_M&lt;br/&gt;PRED0_PE&lt;br/&gt;PRED0_PM&lt;br/&gt;PRED12_E&lt;br/&gt;PRED12_M&lt;br/&gt;PRED12_PE&lt;br/&gt;PRED12_PM&lt;br/&gt;PRED3_E&lt;br/&gt;PRED3_M&lt;br/&gt;PRED3_PE&lt;br/&gt;PRED3_PM&lt;br/&gt;FIPS&lt;br/&gt;COUNTY_FIPS&lt;br/&gt;VULNERABILITY_RATE&lt;br/&gt;RESILIENCE_RATE&lt;br/&gt;VULNERABILITY_SCORE&lt;br/&gt;POPULATION&amp;#x9;&amp;#x9;&amp;#x9;&amp;#x9;&amp;#x9;&amp;#x9;" style="text;html=1;spacing=0;align=left;fontFamily=courier;fontSize=12;fontStyle=0;=center;fontColor=#c4c4c4" vertex="1" parent="12">
                    <mxGeometry x="2" y="31.66796875" width="166" height="384" as="geometry"/>
                </mxCell>
                <mxCell id="14" value="census_resilience" style="text;html=1;spacing=0;align=center;fontFamily=courier;fontSize=12;fontStyle=0;=center;fontColor=#ffffff" vertex="1" parent="12">
                    <mxGeometry y="4" width="166" height="22" as="geometry"/>
                </mxCell>
                <mxCell id="15" style="graphMlID=entity4;gradientDirection=east;shape=swimlane;startSize=30;rounded=1;arcSize=5;collapsible=0;fillColor=#1ba1e2;strokeColor=#006EAF;strokeWidth=1.0;swimlaneFillColor=#202020;fontColor=#ffffff;movable=1;resizable=1;rotatable=1;deletable=1;editable=1;locked=0;connectable=1;" vertex="1" parent="1">
                    <mxGeometry x="33.079999999999984" y="140" width="224.2" height="194" as="geometry"/>
                </mxCell>
                <mxCell id="16" value="county_fips&lt;br/&gt;lambda_hat&lt;br/&gt;lambda_rounded&lt;br/&gt;total_events&lt;br/&gt;years_observed&lt;br/&gt;lambda_ci_lower&lt;br/&gt;lambda_ci_upper&lt;br/&gt;geometry&amp;#x9;&amp;#x9;&amp;#x9;&amp;#x9;&amp;#x9;&amp;#x9;" style="text;html=1;spacing=0;align=left;fontFamily=courier;fontSize=12;fontStyle=0;=center;fontColor=#c4c4c4;movable=1;resizable=1;rotatable=1;deletable=1;editable=1;locked=0;connectable=1;" vertex="1" parent="15">
                    <mxGeometry x="2" y="31.66796875" width="177" height="144" as="geometry"/>
                </mxCell>
                <mxCell id="17" value="disaster_risk_counties_spatial" style="text;html=1;spacing=0;align=center;fontFamily=courier;fontSize=12;fontStyle=0;=center;fontColor=#ffffff;movable=1;resizable=1;rotatable=1;deletable=1;editable=1;locked=0;connectable=1;" vertex="1" parent="15">
                    <mxGeometry x="26.92" width="177" height="22" as="geometry"/>
                </mxCell>
                <mxCell id="24" style="graphMlID=entity7;gradientDirection=east;shape=swimlane;startSize=30;rounded=1;arcSize=5;collapsible=0;fillColor=light-dark(#1BA1E2,#7F00FF);strokeColor=#006EAF;strokeWidth=1.0;swimlaneFillColor=#202020;fontColor=#ffffff;movable=1;resizable=1;rotatable=1;deletable=1;editable=1;locked=0;connectable=1;" vertex="1" parent="1">
                    <mxGeometry x="176.92" y="376" width="182.92" height="174" as="geometry"/>
                </mxCell>
                <mxCell id="25" value="f_table_catalog&lt;br/&gt;f_table_schema&lt;br/&gt;f_table_name&lt;br/&gt;f_geography_column&lt;br/&gt;coord_dimension&lt;br/&gt;srid&lt;br/&gt;type&amp;#x9;&amp;#x9;&amp;#x9;&amp;#x9;&amp;#x9;&amp;#x9;" style="text;html=1;spacing=0;align=left;fontFamily=courier;fontSize=12;fontStyle=0;=center;fontColor=#c4c4c4;movable=1;resizable=1;rotatable=1;deletable=1;editable=1;locked=0;connectable=1;" vertex="1" parent="24">
                    <mxGeometry x="2" y="31.66796875" width="153" height="144" as="geometry"/>
                </mxCell>
                <mxCell id="26" value="geography_columns" style="text;html=1;spacing=0;align=center;fontFamily=courier;fontSize=12;fontStyle=0;=center;fontColor=#ffffff;movable=1;resizable=1;rotatable=1;deletable=1;editable=1;locked=0;connectable=1;" vertex="1" parent="24">
                    <mxGeometry y="4" width="153" height="22" as="geometry"/>
                </mxCell>
                <mxCell id="27" style="graphMlID=entity8;gradientDirection=east;shape=swimlane;startSize=30;rounded=1;arcSize=5;collapsible=0;fillColor=light-dark(#6A00FF,#6A00FF);strokeColor=#3700CC;strokeWidth=1.0;swimlaneFillColor=#202020;fontColor=#ffffff;movable=1;resizable=1;rotatable=1;deletable=1;editable=1;locked=0;connectable=1;" vertex="1" parent="1">
                    <mxGeometry x="366.92" y="376" width="151" height="174" as="geometry"/>
                </mxCell>
                <mxCell id="28" value="f_table_catalog&lt;br/&gt;f_table_schema&lt;br/&gt;f_table_name&lt;br/&gt;f_geometry_column&lt;br/&gt;coord_dimension&lt;br/&gt;srid&lt;br/&gt;type&amp;#x9;&amp;#x9;&amp;#x9;&amp;#x9;&amp;#x9;&amp;#x9;" style="text;html=1;spacing=0;align=left;fontFamily=courier;fontSize=12;fontStyle=0;=center;fontColor=#c4c4c4;movable=1;resizable=1;rotatable=1;deletable=1;editable=1;locked=0;connectable=1;" vertex="1" parent="27">
                    <mxGeometry x="2" y="31.66796875" width="147" height="144" as="geometry"/>
                </mxCell>
                <mxCell id="29" value="geometry_columns" style="text;html=1;spacing=0;align=center;fontFamily=courier;fontSize=12;fontStyle=0;=center;fontColor=#ffffff;fillColor=light-dark(#6A00FF,#7F00FF);strokeColor=#3700CC;movable=1;resizable=1;rotatable=1;deletable=1;editable=1;locked=0;connectable=1;" vertex="1" parent="27">
                    <mxGeometry y="4" width="147" height="22" as="geometry"/>
                </mxCell>
                <mxCell id="30" style="graphMlID=entity9;gradientDirection=east;shape=swimlane;startSize=30;rounded=1;arcSize=5;collapsible=0;fillColor=#008a00;strokeColor=#005700;strokeWidth=1.0;swimlaneFillColor=#202020;fontColor=#ffffff;movable=1;resizable=1;rotatable=1;deletable=1;editable=1;locked=0;connectable=1;" vertex="1" parent="1">
                    <mxGeometry x="750.0000000000001" y="450" width="187.12" height="120" as="geometry"/>
                </mxCell>
                <mxCell id="32" value="nri_shape_census_tracts" style="text;html=1;spacing=0;align=center;fontFamily=courier;fontSize=12;fontStyle=0;=center;fontColor=#ffffff;movable=1;resizable=1;rotatable=1;deletable=1;editable=1;locked=0;connectable=1;" vertex="1" parent="30">
                    <mxGeometry x="16" y="2" width="150" height="22" as="geometry"/>
                </mxCell>
                <mxCell id="33" style="graphMlID=entity10;gradientDirection=east;shape=swimlane;startSize=30;rounded=1;arcSize=5;collapsible=0;fillColor=light-dark(#1BA1E2,#7F00FF);strokeColor=#006EAF;strokeWidth=1.0;swimlaneFillColor=#202020;fontColor=#ffffff;movable=1;resizable=1;rotatable=1;deletable=1;editable=1;locked=0;connectable=1;" vertex="1" parent="1">
                    <mxGeometry x="40" y="376" width="130" height="134" as="geometry"/>
                </mxCell>
                <mxCell id="34" value="srid&lt;br/&gt;auth_name&lt;br/&gt;auth_srid&lt;br/&gt;srtext&lt;br/&gt;proj4text&amp;#x9;&amp;#x9;&amp;#x9;&amp;#x9;&amp;#x9;&amp;#x9;" style="text;html=1;spacing=0;align=left;fontFamily=courier;fontSize=12;fontStyle=0;=center;fontColor=#c4c4c4;movable=1;resizable=1;rotatable=1;deletable=1;editable=1;locked=0;connectable=1;" vertex="1" parent="33">
                    <mxGeometry x="4" y="31.66796875" width="100" height="84" as="geometry"/>
                </mxCell>
                <mxCell id="35" value="spatial_ref_sys" style="text;html=1;spacing=0;align=center;fontFamily=courier;fontSize=12;fontStyle=0;=center;fontColor=#ffffff;fillColor=light-dark(#1BA1E2,#7F00FF);strokeColor=#006EAF;movable=1;resizable=1;rotatable=1;deletable=1;editable=1;locked=0;connectable=1;" vertex="1" parent="33">
                    <mxGeometry x="15" width="100" height="22" as="geometry"/>
                </mxCell>
                <mxCell id="39" style="edgeStyle=none;html=1;exitX=1;exitY=0.5;exitDx=0;exitDy=0;exitPerimeter=0;entryX=0;entryY=0.5;entryDx=0;entryDy=0;" edge="1" parent="1" source="37" target="38">
                    <mxGeometry relative="1" as="geometry"/>
                </mxCell>
                <mxCell id="70" style="edgeStyle=orthogonalEdgeStyle;html=1;exitX=0.5;exitY=1;exitDx=0;exitDy=0;exitPerimeter=0;entryX=0;entryY=0.5;entryDx=0;entryDy=0;" edge="1" parent="1" source="37" target="69">
                    <mxGeometry relative="1" as="geometry">
                        <Array as="points">
                            <mxPoint x="50" y="690"/>
                            <mxPoint x="50" y="935"/>
                        </Array>
                    </mxGeometry>
                </mxCell>
                <mxCell id="37" value="NOAA_STORM_EPISODES" style="shape=cylinder3;whiteSpace=wrap;html=1;boundedLbl=1;backgroundOutline=1;size=15;fillColor=#fad9d5;strokeColor=#ae4132;" vertex="1" parent="1">
                    <mxGeometry x="43.44" y="610" width="180" height="80" as="geometry"/>
                </mxCell>
                <mxCell id="41" style="edgeStyle=none;html=1;exitX=1;exitY=0.5;exitDx=0;exitDy=0;entryX=0;entryY=0.5;entryDx=0;entryDy=0;" edge="1" parent="1" source="38" target="40">
                    <mxGeometry relative="1" as="geometry"/>
                </mxCell>
                <mxCell id="38" value="generate summary statistics including lambda hat" style="shape=process;whiteSpace=wrap;html=1;backgroundOutline=1;fillColor=#fad7ac;strokeColor=#b46504;" vertex="1" parent="1">
                    <mxGeometry x="260" y="625" width="149" height="50" as="geometry"/>
                </mxCell>
                <mxCell id="43" style="edgeStyle=none;html=1;exitX=1;exitY=0.5;exitDx=0;exitDy=0;" edge="1" parent="1" source="40" target="42">
                    <mxGeometry relative="1" as="geometry"/>
                </mxCell>
                <mxCell id="40" value="df: county_lambdas" style="rounded=1;whiteSpace=wrap;html=1;fillColor=#b1ddf0;strokeColor=#10739e;" vertex="1" parent="1">
                    <mxGeometry x="440" y="620" width="120" height="60" as="geometry"/>
                </mxCell>
                <mxCell id="65" style="edgeStyle=orthogonalEdgeStyle;html=1;exitX=0.5;exitY=1;exitDx=0;exitDy=0;entryX=0.5;entryY=0;entryDx=0;entryDy=0;" edge="1" parent="1" source="42" target="44">
                    <mxGeometry relative="1" as="geometry"/>
                </mxCell>
                <mxCell id="42" value="validate with sample counties" style="rhombus;whiteSpace=wrap;html=1;fillColor=#bac8d3;strokeColor=#23445d;" vertex="1" parent="1">
                    <mxGeometry x="600" y="600" width="140" height="100" as="geometry"/>
                </mxCell>
                <mxCell id="46" style="edgeStyle=none;html=1;exitX=1;exitY=0.5;exitDx=0;exitDy=0;entryX=0;entryY=0.5;entryDx=0;entryDy=0;" edge="1" parent="1" source="44" target="45">
                    <mxGeometry relative="1" as="geometry"/>
                </mxCell>
                <mxCell id="44" value="calculate confidence intervals (SE, CI lower, CI upper" style="shape=process;whiteSpace=wrap;html=1;backgroundOutline=1;fillColor=#fad7ac;strokeColor=#b46504;" vertex="1" parent="1">
                    <mxGeometry x="73" y="730" width="120" height="60" as="geometry"/>
                </mxCell>
                <mxCell id="55" style="edgeStyle=orthogonalEdgeStyle;html=1;exitX=1;exitY=0.5;exitDx=0;exitDy=0;entryX=0;entryY=0.5;entryDx=0;entryDy=0;" edge="1" parent="1" source="45" target="54">
                    <mxGeometry relative="1" as="geometry"/>
                </mxCell>
                <mxCell id="45" value="df: poisson_risk_params" style="rounded=1;whiteSpace=wrap;html=1;fillColor=#b1ddf0;strokeColor=#10739e;" vertex="1" parent="1">
                    <mxGeometry x="247" y="730" width="120" height="60" as="geometry"/>
                </mxCell>
                <mxCell id="49" style="edgeStyle=none;html=1;exitX=1;exitY=0.5;exitDx=0;exitDy=0;exitPerimeter=0;" edge="1" parent="1" source="47" target="48">
                    <mxGeometry relative="1" as="geometry"/>
                </mxCell>
                <mxCell id="47" value="nri_shape_census_tracts" style="shape=cylinder3;whiteSpace=wrap;html=1;boundedLbl=1;backgroundOutline=1;size=15;fillColor=#fad9d5;strokeColor=#ae4132;" vertex="1" parent="1">
                    <mxGeometry x="60" y="810" width="146" height="70" as="geometry"/>
                </mxCell>
                <mxCell id="51" style="edgeStyle=none;html=1;exitX=1;exitY=0.5;exitDx=0;exitDy=0;" edge="1" parent="1" source="48" target="50">
                    <mxGeometry relative="1" as="geometry"/>
                </mxCell>
                <mxCell id="48" value="df: nri_gdf" style="rounded=1;whiteSpace=wrap;html=1;fillColor=#b1ddf0;strokeColor=#10739e;" vertex="1" parent="1">
                    <mxGeometry x="247" y="815" width="120" height="60" as="geometry"/>
                </mxCell>
                <mxCell id="53" style="edgeStyle=none;html=1;exitX=1;exitY=0.5;exitDx=0;exitDy=0;entryX=0;entryY=0.5;entryDx=0;entryDy=0;" edge="1" parent="1" source="50" target="52">
                    <mxGeometry relative="1" as="geometry"/>
                </mxCell>
                <mxCell id="50" value="convert geometries for QGIS import" style="shape=process;whiteSpace=wrap;html=1;backgroundOutline=1;fillColor=#fad7ac;strokeColor=#b46504;" vertex="1" parent="1">
                    <mxGeometry x="394" y="815" width="120" height="60" as="geometry"/>
                </mxCell>
                <mxCell id="56" style="edgeStyle=orthogonalEdgeStyle;html=1;exitX=1;exitY=0.5;exitDx=0;exitDy=0;entryX=0.5;entryY=1;entryDx=0;entryDy=0;" edge="1" parent="1" source="52" target="54">
                    <mxGeometry relative="1" as="geometry"/>
                </mxCell>
                <mxCell id="52" value="df: county_boundaries" style="rounded=1;whiteSpace=wrap;html=1;fillColor=#b1ddf0;strokeColor=#10739e;" vertex="1" parent="1">
                    <mxGeometry x="540" y="815" width="120" height="60" as="geometry"/>
                </mxCell>
                <mxCell id="58" style="edgeStyle=orthogonalEdgeStyle;html=1;exitX=1;exitY=0.5;exitDx=0;exitDy=0;entryX=0.5;entryY=0;entryDx=0;entryDy=0;" edge="1" parent="1" source="54" target="57">
                    <mxGeometry relative="1" as="geometry"/>
                </mxCell>
                <mxCell id="54" value="aggregate and merge" style="shape=process;whiteSpace=wrap;html=1;backgroundOutline=1;fillColor=#fad7ac;strokeColor=#b46504;" vertex="1" parent="1">
                    <mxGeometry x="660" y="730" width="120" height="60" as="geometry"/>
                </mxCell>
                <mxCell id="60" style="edgeStyle=none;html=1;exitX=0.5;exitY=1;exitDx=0;exitDy=0;" edge="1" parent="1" source="57" target="59">
                    <mxGeometry relative="1" as="geometry"/>
                </mxCell>
                <mxCell id="57" value="df: lambda_map_data" style="rounded=1;whiteSpace=wrap;html=1;fillColor=#b1ddf0;strokeColor=#10739e;" vertex="1" parent="1">
                    <mxGeometry x="750" y="840" width="120" height="60" as="geometry"/>
                </mxCell>
                <mxCell id="62" style="edgeStyle=none;html=1;exitX=0;exitY=0.5;exitDx=0;exitDy=0;entryX=1;entryY=0.5;entryDx=0;entryDy=0;" edge="1" parent="1" source="59" target="61">
                    <mxGeometry relative="1" as="geometry"/>
                </mxCell>
                <mxCell id="59" value="impute data for missing counties" style="shape=process;whiteSpace=wrap;html=1;backgroundOutline=1;fillColor=#fad7ac;strokeColor=#b46504;" vertex="1" parent="1">
                    <mxGeometry x="750" y="930" width="120" height="60" as="geometry"/>
                </mxCell>
                <mxCell id="64" style="edgeStyle=orthogonalEdgeStyle;html=1;exitX=0;exitY=0.5;exitDx=0;exitDy=0;" edge="1" parent="1" source="61" target="63">
                    <mxGeometry relative="1" as="geometry"/>
                </mxCell>
                <mxCell id="61" value="df: lambda_map_clean" style="rounded=1;whiteSpace=wrap;html=1;fillColor=#b1ddf0;strokeColor=#10739e;" vertex="1" parent="1">
                    <mxGeometry x="610" y="930" width="120" height="60" as="geometry"/>
                </mxCell>
                <mxCell id="71" style="edgeStyle=orthogonalEdgeStyle;html=1;exitX=0;exitY=0.5;exitDx=0;exitDy=0;exitPerimeter=0;entryX=1;entryY=0.5;entryDx=0;entryDy=0;" edge="1" parent="1" source="63" target="69">
                    <mxGeometry relative="1" as="geometry"/>
                </mxCell>
                <mxCell id="63" value="create table:&lt;div&gt;disaster_risk_counties_spacial&lt;/div&gt;" style="shape=cylinder3;whiteSpace=wrap;html=1;boundedLbl=1;backgroundOutline=1;size=15;fillColor=#fad9d5;strokeColor=#ae4132;" vertex="1" parent="1">
                    <mxGeometry x="386" y="900" width="190" height="70" as="geometry"/>
                </mxCell>
                <mxCell id="66" value="create table: disaster_risk_spacial" style="shape=cylinder3;whiteSpace=wrap;html=1;boundedLbl=1;backgroundOutline=1;size=15;fillColor=#fad9d5;strokeColor=#ae4132;" vertex="1" parent="1">
                    <mxGeometry x="394" y="980" width="174" height="60" as="geometry"/>
                </mxCell>
                <mxCell id="67" style="edgeStyle=orthogonalEdgeStyle;html=1;exitX=0.5;exitY=1;exitDx=0;exitDy=0;entryX=1;entryY=0.5;entryDx=0;entryDy=0;entryPerimeter=0;" edge="1" parent="1" source="61" target="66">
                    <mxGeometry relative="1" as="geometry"/>
                </mxCell>
                <mxCell id="68" value="&lt;span style=&quot;font-family: Consolas, &amp;quot;Courier New&amp;quot;, monospace; font-size: 14px; text-align: start; white-space: pre;&quot;&gt;&lt;font style=&quot;color: light-dark(rgb(204, 204, 204), rgb(255, 255, 255));&quot;&gt;disaster_risk_counties_event_counts&lt;/font&gt;&lt;/span&gt;" style="shape=cylinder3;whiteSpace=wrap;html=1;boundedLbl=1;backgroundOutline=1;size=15;fillColor=#fad9d5;strokeColor=#ae4132;" vertex="1" parent="1">
                    <mxGeometry x="30" y="1000" width="287" height="70" as="geometry"/>
                </mxCell>
                <mxCell id="69" value="Left join and count" style="shape=process;whiteSpace=wrap;html=1;backgroundOutline=1;fillColor=#fad7ac;strokeColor=#b46504;" vertex="1" parent="1">
                    <mxGeometry x="113.5" y="905" width="120" height="60" as="geometry"/>
                </mxCell>
                <mxCell id="72" style="edgeStyle=orthogonalEdgeStyle;html=1;exitX=0.5;exitY=1;exitDx=0;exitDy=0;entryX=0.5;entryY=0;entryDx=0;entryDy=0;entryPerimeter=0;" edge="1" parent="1" source="69" target="68">
                    <mxGeometry relative="1" as="geometry"/>
                </mxCell>
            </root>
        </mxGraphModel>
    </diagram>
</mxfile>